<?xml version="1.0" encoding="iso-8859-1"?>
<!-- Generator: Adobe Illustrator 19.0.0, SVG Export Plug-In . SVG Version: 6.00 Build 0)  -->
<svg version="1.1" id="Capa_1" xmlns="http://www.w3.org/2000/svg" xmlns:xlink="http://www.w3.org/1999/xlink" x="0px" y="0px"
	 viewBox="0 0 368 368" style="enable-background:new 0 0 368 368;" xml:space="preserve">
<path style="fill:#CCE4FF;" d="M232,56v48h96v240c0,8.8-7.2,16-16,16H56c-8.8,0-16-7.2-16-16V24c0-8.8,7.2-16,16-16h176V56z"/>
<g>
	<path style="fill:#007AFF;" d="M32,24v320c0,13.232,10.768,24,24,24h256c13.232,0,24-10.768,24-24V88c0-2.12-0.84-4.16-2.344-5.656
		l-80-80C252.16,0.84,250.128,0,248,0H56C42.768,0,32,10.768,32,24z M240,16h4.688L320,91.312V96h-80V16z M224,48H88
		c-4.416,0-8,3.584-8,8v48c0,4.416,3.584,8,8,8s8-3.584,8-8V64h128v40c0,4.416,3.576,8,8,8h88v232c0,4.408-3.584,8-8,8H56
		c-4.408,0-8-3.592-8-8V24c0-4.408,3.592-8,8-8h168V48z"/>
	<path style="fill:#007AFF;" d="M178.344,301.656c0.736,0.736,1.624,1.32,2.6,1.728c0.976,0.4,2.016,0.616,3.056,0.616
		c1.04,0,2.08-0.216,3.056-0.616c0.976-0.408,1.864-0.992,2.6-1.728l48-48c3.128-3.128,3.128-8.184,0-11.312s-8.184-3.128-11.312,0
		L192,276.688V136c0-4.416-3.584-8-8-8s-8,3.584-8,8v140.688l-34.344-34.344c-3.128-3.128-8.184-3.128-11.312,0
		s-3.128,8.184,0,11.312L178.344,301.656z"/>
</g>
<g>
</g>
<g>
</g>
<g>
</g>
<g>
</g>
<g>
</g>
<g>
</g>
<g>
</g>
<g>
</g>
<g>
</g>
<g>
</g>
<g>
</g>
<g>
</g>
<g>
</g>
<g>
</g>
<g>
</g>
</svg>
