<svg height="460pt" viewBox="0 -21 460.43997 460" width="460pt" xmlns="http://www.w3.org/2000/svg"><path d="m413.71875 153.601562-1.640625-67.179687c-.757813-14.988281 10.398437-27.925781 25.332031-29.382813l23.019532 145.269532c.28125 18.234375-5.320313 36.070312-15.96875 50.871094l-56.351563 68.199218c-5.1875 6.277344-7.746094 14.3125-7.140625 22.429688l1.511719 20.140625-78.460938-37.371094.300781-.636719c-6.21875-30.597656 5.179688-62.101562 29.539063-81.632812l4.46875-3.589844c7.007813-5.617188 12.648437-12.742188 16.511719-20.847656l21.539062-45.222656c6.757813-14.191407 21.699219-22.613282 37.339844-21.046876zm0 0" fill="#f7caa5"/><path d="m323.121094 30.179688v126.800781l-92.902344 29.960937v-126.800781zm0 0" fill="#00acea"/><path d="m230.21875 60.140625-92.898438-29.960937 92.898438-29.960938 92.902344 29.960938zm0 0" fill="#00efd1"/><path d="m230.21875 60.140625v126.800781l-92.898438-29.960937v-126.800781zm0 0" fill="#2ed3ff"/><path d="m46.71875 153.601562c15.644531-1.566406 30.585938 6.855469 37.339844 21.046876l21.542968 45.222656c3.859376 8.105468 9.503907 15.230468 16.507813 20.847656l4.46875 3.589844c24.359375 19.53125 35.761719 51.035156 29.542969 81.632812l.300781.636719-78.460937 37.371094 1.507812-20.140625c.605469-8.117188-1.953125-16.152344-7.140625-22.429688l-56.347656-68.199218c-10.648438-14.800782-16.25-32.636719-15.9687502-50.871094l23.0195312-145.269532c14.382812 1.40625 25.355469 13.488282 25.367188 27.941407 0 .480469-.019532.960937-.039063 1.441406zm0 0" fill="#f7caa5"/><path d="m304.320312 333.941406c-3.800781-.003906-7.074218-2.679687-7.832031-6.40625-6.90625-33.539062 5.601563-68.113281 32.367188-89.46875l4.476562-3.589844c6.054688-4.871093 10.9375-11.039062 14.289063-18.050781l21.535156-45.21875c10.765625-22.539062 37.742188-32.109375 60.300781-21.394531 3.988281 1.902344 5.683594 6.675781 3.78125 10.664062l-35.398437 74.335938c-1.914063 3.960938-6.671875 5.632812-10.644532 3.742188-3.972656-1.894532-5.671874-6.640626-3.800781-10.625l31.484375-66.105469c-12.882812-2.15625-25.636718 4.476562-31.269531 16.261719l-21.539063 45.21875c-4.390624 9.191406-10.789062 17.273437-18.726562 23.65625l-4.476562 3.585937c-22.078126 17.617187-32.394532 46.136719-26.699219 73.800781.476562 2.355469-.128907 4.800782-1.648438 6.660156-1.519531 1.863282-3.796875 2.941407-6.199219 2.941407zm0 0" fill="#edb288"/><path d="m156.125 333.941406c-2.402344.003906-4.679688-1.078125-6.199219-2.9375-1.523437-1.859375-2.125-4.304687-1.648437-6.660156 5.695312-27.664062-4.621094-56.183594-26.699219-73.800781l-4.476563-3.589844c-7.9375-6.378906-14.335937-14.460937-18.726562-23.652344l-21.539062-45.21875c-5.628907-11.789062-18.386719-18.421875-31.269532-16.261719l31.484375 66.105469c1.871094 3.984375.171875 8.730469-3.800781 10.625-3.976562 1.890625-8.730469.21875-10.644531-3.742187l-35.402344-74.328125c-1.898437-3.988281-.207031-8.765625 3.785156-10.664063 22.558594-10.714844 49.535157-1.144531 60.296875 21.394532l21.539063 45.21875c3.351562 7.011718 8.234375 13.179687 14.292969 18.050781l4.476562 3.585937c26.761719 21.359375 39.273438 55.933594 32.367188 89.472656-.757813 3.726563-4.035157 6.402344-7.835938 6.402344zm0 0" fill="#edb288"/><g fill="#00efd1"><path d="m382.480469 363.949219 8.828125 4.210937-23.609375 49.578125-108.820313-51.816406 23.621094-49.59375 21.519531 10.25zm0 0"/><path d="m77.960938 363.949219 78.460937-37.371094 21.519531-10.25 23.617188 49.59375-108.820313 51.816406-23.609375-49.578125zm0 0"/></g></svg>