<?xml version="1.0" encoding="utf-8"?>
<!-- Generator: Adobe Illustrator 24.0.0, SVG Export Plug-In . SVG Version: 6.00 Build 0)  -->
<svg version="1.1" id="Layer_1" xmlns="http://www.w3.org/2000/svg" xmlns:xlink="http://www.w3.org/1999/xlink" x="0px" y="0px"
	 viewBox="0 0 50 50" style="enable-background:new 0 0 50 50;" xml:space="preserve">
<style type="text/css">
	.st0{fill:#4C5769;}
</style>
<g>
	<g>
		<path class="st0" d="M32.3,14.6c-0.6-0.6-1.4-1-2.2-1.1c0.3-1.4-0.1-2.9-1.1-3.9c-1.6-1.6-4.4-1.6-6,0l-3.5,3.5l-2.1-2.1
			c0.2-0.7,0.2-1.3,0.3-2c0,0,0,0,0,0c0-4.7-4-8.6-8.7-8.6c-1.1,0-2.2,0.3-3.4,0.8l-1,0.4C4,1.8,3.7,2.2,3.6,2.6S3.7,3.5,4,3.8
			l3.6,3.6c0.1,0.1,0.1,0.2,0,0.4c-0.1,0.1-0.2,0.1-0.4,0L3.6,4.1C3,3.6,2.2,3.6,1.7,4.2C1.6,4.3,1.5,4.5,1.4,4.6L1,5.6
			C0.5,6.7,0.2,7.9,0.2,9.1c0,2.3,1,4.5,2.6,6.1c1.6,1.6,3.8,2.5,6.1,2.5c0.1,0,0.1,0,0.3,0l-3.7,3.7C2,25,2.1,30.7,5.6,34.2
			c0,0,0,0,0,0l8.7,8.6c3.6,3.5,9.3,3.6,12.8,0l4.7-4.8l0.9,0.8c-0.1,0.7-0.2,1.3-0.3,2c0,0,0,0,0,0c0.1,4.8,4,8.6,8.7,8.6
			c1.1,0,2.2-0.3,3.4-0.8l1-0.4c0.4-0.2,0.7-0.5,0.8-1c0.1-0.4,0-0.9-0.4-1.2l-3.6-3.6c-0.1-0.1-0.1-0.2,0-0.4
			c0.1-0.1,0.2-0.1,0.4,0l3.6,3.6c0.3,0.3,0.7,0.5,1.2,0.4c0.4-0.1,0.8-0.4,0.9-0.8l0.4-1c0.5-1.1,0.7-2.3,0.7-3.4
			c0-4.7-4-8.6-8.7-8.6c-0.7,0-1.4,0.1-2.1,0.3l-0.9-0.8l1.4-1.4c1.2-1.2,1.2-3.9-0.5-5.6c-0.6-0.6-1.3-1-2.2-1.1
			c0.2-1.4-0.2-2.9-1.3-3.9c-0.6-0.6-1.4-1-2.3-1.2C33.7,17.1,33.2,15.6,32.3,14.6z M2.9,9c0-0.5,0.1-1.1,0.3-1.6l2.2,2.2
			c1.2,1.1,3,1.1,4.1,0s1.1-3,0-4.1L7.3,3.3C7.8,3.2,8.3,3,8.8,3c3.2,0,6,2.7,6,6c0,0.7-0.1,1.4-0.4,2c-0.2,0.5-0.1,1,0.3,1.4
			l2.7,2.6l-2.5,2.6l-2.6-2.6c-0.4-0.4-0.9-0.5-1.4-0.3C10.3,14.9,9.6,15,8.9,15C5.7,15,2.9,12.3,2.9,9z M47.1,40.9
			c0,0.5-0.1,1.1-0.2,1.6l-2.2-2.2c-1.2-1.1-3-1.1-4.1,0c-1.1,1.2-1.1,3,0,4.1l2.2,2.2c-0.5,0.2-1.1,0.3-1.6,0.3c-3.2,0-6-2.7-6-5.9
			c0-0.7,0.1-1.3,0.4-2c0.2-0.5,0.1-1-0.3-1.4l-1.4-1.4l2.5-2.6l1.4,1.4c0.4,0.4,0.9,0.5,1.4,0.3c0.6-0.2,1.3-0.4,2-0.4
			C44.3,34.9,47.1,37.7,47.1,40.9z M27,13.7l-1.1,1.1c-0.5,0.5,0.2,0.7,0.6,1.2c0.5,0.6,0.7,1.3,1.2,0.7l0,0l0.1,0
			c0.1-0.1,0.3-0.2,0.4-0.3c0.6-0.5,1.6-0.4,2.1,0.1c0.6,0.6,0.6,1.7,0,2.3L29.3,20c-0.5,0.5,0.2,0.7,0.7,1.3c0.5,0.5,0.4,1.1,1,0.8
			c0.1-0.1,0.2-0.1,0.3-0.2c0.1-0.1,0.2-0.1,0.3-0.2c0.6-0.6,1.7-0.6,2.3,0c0.6,0.6,0.5,1.6,0.4,1.9L32.7,25
			c-0.5,0.5,0.2,0.7,0.7,1.2c0.5,0.5,0.4,1.1,1,0.8c0.1,0,0.1-0.1,0.2-0.1c0.1-0.1,0.2-0.1,0.3-0.2c0.4-0.4,1.1-0.6,1.7-0.4
			c1.3,0.4,1.2,1.9,1.1,2.2L25.3,41c-2.5,2.5-6.5,2.5-9,0l-8.8-8.7c-2.5-2.5-2.6-6.5-0.1-9c0,0,0,0,0,0l4.7-4.8l0.9,0.9l0,0
			c0,0,0.6,0.5,1,1c0.5,0.3,1.5,0.3,2.1-0.3l8.5-8.7c0.6-0.6,1.5-0.7,2.2-0.2C27.6,11.9,27.7,13,27,13.7z"/>
	</g>
</g>
</svg>
