<?xml version="1.0" encoding="utf-8"?>
<!-- Generator: Adobe Illustrator 18.0.0, SVG Export Plug-In . SVG Version: 6.00 Build 0)  -->
<!DOCTYPE svg PUBLIC "-//W3C//DTD SVG 1.1//EN" "http://www.w3.org/Graphics/SVG/1.1/DTD/svg11.dtd">
<svg version="1.1" id="Layer_1" xmlns="http://www.w3.org/2000/svg" xmlns:xlink="http://www.w3.org/1999/xlink" x="0px" y="0px"
	 viewBox="0 0 700 700" enable-background="new 0 0 700 700" xml:space="preserve">
<g id="machineryhouse">
	<rect x="97.4" y="148.9" fill="#172C3D" width="71.2" height="52.8"/>
	<path fill="#2C5170" d="M172.3,153.2v47.5H97.4v-47.5H172.3L172.3,153.2z M172.6,146H93.7v58.5h78.9V146L172.6,146z"/>
	<rect x="97.3" y="156.5" fill="#2C5170" width="71.9" height="3"/>
	<rect x="97.2" y="163.2" fill="#2C5170" width="71.9" height="3"/>
	<rect x="97.3" y="170.9" fill="#2C5170" width="71.9" height="3"/>
	<rect x="97.2" y="177.6" fill="#2C5170" width="71.9" height="3"/>
	<rect x="97.2" y="184.7" fill="#2C5170" width="71.9" height="3"/>
	<rect x="97.1" y="191.4" fill="#2C5170" width="71.9" height="3"/>
	<rect x="97.1" y="196.8" fill="#2C5170" width="71.9" height="3"/>
</g>
<g id="spreader">
	<rect id="sreader" x="230.1" y="377.5" fill="#727272" stroke="#444444" stroke-miterlimit="10" width="35.6" height="13"/>
</g>
<g id="container">
	<g>
		<rect x="241.8" y="394.1" fill="#769CA8" width="3.9" height="8.1"/>
		<rect x="249.1" y="394.1" fill="#769CA8" width="3.9" height="8.1"/>
	</g>
	<g>
		<rect x="241.8" y="418.8" fill="#769CA8" width="3.9" height="8.1"/>
		<rect x="249.1" y="418.8" fill="#769CA8" width="3.9" height="8.1"/>
	</g>
	<g>
		<rect x="226.5" y="391.6" fill="#4F778E" width="42.7" height="42.7"/>
		<g>
			<path opacity="0.5" fill="#6296BA" enable-background="new    " d="M263.3,397.5v31h-31v-31H263.3L263.3,397.5z M270.5,390.3
				h-45.4v45.4h45.4V390.3L270.5,390.3z"/>
		</g>
		<path fill="#6296BA" d="M266.9,393.9v38.2h-38.2v-38.2H266.9L266.9,393.9z M270.5,390.3h-45.4v45.4h45.4V390.3L270.5,390.3z"/>
	</g>
</g>
<g>
	<polygon fill="#C94C62" points="179,409.6 174.6,405.8 311.1,223 311,231.3 	"/>
</g>
<g>
	<polygon fill="#A82D42" points="179.5,400.5 178,396 311.5,216.8 313,221.3 	"/>
</g>
<g id="drivercabin">
	<g>
		<path fill="#848484" d="M215.9,248.3l-3.5,6c0,0-1.9,3.8-3.3,3.8c-2.3,0-16.6,0-16.6,0v-17.7l-2.2-2.2v-5.5c0,0,0.5-2.1,2.4-2.1
			c5.5,0,21,0,22.9,0c2,0,1.8,0.9,1.8,1.7c0,0.3,0,2.1,0,2.1l-0.3,3.8l-0.9,9.6L215.9,248.3z"/>
		
			<linearGradient id="SVGID_1_" gradientUnits="userSpaceOnUse" x1="209.2473" y1="445.3939" x2="209.2473" y2="465.0799" gradientTransform="matrix(1 0 0 -1 0 700)">
			<stop  offset="0.1262" style="stop-color:#65CCCB"/>
			<stop  offset="0.3438" style="stop-color:#65C8C8"/>
			<stop  offset="0.5617" style="stop-color:#67BCBF"/>
			<stop  offset="0.7792" style="stop-color:#69A8B0"/>
			<stop  offset="0.955" style="stop-color:#6C92A0"/>
		</linearGradient>
		<path fill="url(#SVGID_1_)" d="M214.7,247.3l0.5-10.3h-12v11.9v6c0,0,2.7,0,6.3,0c0.8,0,1.1-0.7,1.1-0.7L214.7,247.3z"/>
	</g>
	<path fill="#616B74" d="M174.9,232.7v2.9h42.3l0.1-1.2c0,0,0-1.8,0-2.1c0-0.7,0.2-1.5-1.2-1.7h-24
		C190.7,230.9,174.9,232.7,174.9,232.7z"/>
	
		<linearGradient id="SVGID_2_" gradientUnits="userSpaceOnUse" x1="207.8473" y1="456.4574" x2="207.8473" y2="466.0495" gradientTransform="matrix(1 0 0 -1 0 700)">
		<stop  offset="0.1262" style="stop-color:#56BDBC"/>
		<stop  offset="0.3438" style="stop-color:#56B9B9"/>
		<stop  offset="0.5617" style="stop-color:#58ADB0"/>
		<stop  offset="0.7792" style="stop-color:#5A99A1"/>
		<stop  offset="0.955" style="stop-color:#5D8391"/>
	</linearGradient>
	<polygon opacity="0.3" fill="url(#SVGID_2_)" enable-background="new    " points="213.3,243.7 213.8,235 201.8,235 201.8,239.5 
		206.6,239.5 207.9,242.5 	"/>
	<circle fill="#5B5B59" cx="202.1" cy="228.4" r="3.5"/>
</g>
<g id="headblock">
	<polygon fill="#D13447" points="259.5,373.2 235.6,373.2 232.1,358.5 263.3,358.5 	"/>
	<polygon fill="#D13447" stroke="#AF2334" stroke-miterlimit="10" points="259.5,371 235.6,371 232.1,377.8 263.3,377.8 	"/>
	<rect x="245.6" y="222.5" fill="#3D3D3D" width="3.1" height="136.1"/>
	<rect x="239.3" y="222.5" fill="#3D3D3D" width="0.7" height="136.1"/>
	<rect x="254.4" y="222.5" fill="#3D3D3D" width="0.7" height="136.3"/>
</g>
<g id="legs">
	<g>
		<rect x="310.8" y="69.4" fill="#992937" width="13.9" height="421.4"/>
	</g>
	<rect x="222.8" y="216.9" fill="#848484" width="47.7" height="8.3"/>
	<circle fill="#848484" cx="228" cy="223.5" r="4.1"/>
	<circle fill="#848484" cx="265.6" cy="223.5" r="4.1"/>
	<rect x="589.8" y="218" opacity="0.8" fill="#C3C6D8" enable-background="new    " width="47.7" height="1.4"/>
	<circle opacity="0.8" fill="#C3C6D8" enable-background="new    " cx="595" cy="222.5" r="1"/>
	<circle opacity="0.8" fill="#C3C6D8" enable-background="new    " cx="632.6" cy="222.5" r="1"/>
	<rect x="166.6" y="167.7" fill="#992937" width="4.8" height="319.9"/>
	<g id="backreach">
		<polygon fill="#C43540" points="680.3,217 15.5,216.4 34.8,199.1 665.6,199.8 		"/>
		<circle fill="#565656" cx="577.2" cy="201.6" r="2.4"/>
		<g>
			<polygon fill="#565656" points="576,201.7 568.3,188.1 562.2,201.6 561,201.3 568.1,185.4 577.1,201.2 			"/>
		</g>
		<circle fill="#565656" cx="561.3" cy="201.6" r="2.4"/>
		<circle fill="#565656" cx="568.2" cy="185.9" r="2.4"/>
		<g>
			
				<rect x="306" y="134.7" transform="matrix(-0.9048 -0.4259 0.4259 -0.9048 823.5784 455.1219)" fill="#565656" width="313.3" height="1.6"/>
		</g>
		<polygon fill="#F84247" points="687.8,222.9 9.5,222.3 29.2,205 672.8,205.7 		"/>
		<g>
			
				<rect x="317" y="137" transform="matrix(-0.9051 -0.4252 0.4252 -0.9051 847.9499 464.8792)" fill="#848484" width="317.8" height="1.6"/>
		</g>
		<rect id="boom" x="337.1" y="191.3" fill="none" width="350.7" height="36.8"/>
		<rect id="backreach_1_" x="3.3" y="197.5" fill="none" width="168.1" height="26"/>
	</g>
	<rect x="163.5" y="494.5" fill="#282828" width="26.3" height="21.5"/>
	<rect x="309.4" y="495.9" fill="#262626" width="26.3" height="21.5"/>
	<rect x="162.4" y="483.8" fill="#9E303D" width="28.6" height="21.5"/>
	<rect x="308.2" y="485.2" fill="#9E303D" width="28.6" height="21.5"/>
	<path fill="#848484" d="M193.5,228.7h-3.3l-1-0.5l-0.3,0.5h-37.8l-0.2-0.3l-0.6,0.3H147v4.8h3.9l3.7,7.2v0.1l6.9,14.1
		c0.3,0.6,1.1,1.1,1.8,1.1h13c0.7,0,1.5-0.5,1.8-1.1l6.4-13.1l0,0l4.3-8.4h4.4v-4.7H193.5z M183.2,239.8h-26.4l-3.2-6.2h32.8
		L183.2,239.8z"/>
	<g>
		<polygon fill="#848484" points="594.5,207.5 585,190.8 577.5,207.4 576,207 584.8,187.4 595.9,206.9 		"/>
	</g>
	<g>
		<polygon fill="#CE455C" points="173.3,193.1 170.3,186.8 316,70.4 318.9,76.7 		"/>
	</g>
	<g>
		<polygon fill="#CE455C" points="180.6,199 177.6,192.2 329.8,70.5 332.9,77.4 		"/>
	</g>
	<g>
		<rect x="323.2" y="68.4" fill="#F4404E" width="13.4" height="122.9"/>
	</g>
	<g>
		<rect x="173.3" y="169.2" fill="#F4404E" width="15.5" height="22.9"/>
	</g>
	<rect x="175.5" y="206.2" fill="#848484" width="16.7" height="34.9"/>
	<circle fill="#848484" cx="577.1" cy="205.5" r="2.6"/>
	<circle fill="#848484" cx="594.2" cy="205.5" r="2.6"/>
	<path fill="#F4404E" d="M188.5,403.6V196.8h131.4v206.8L188.5,403.6z M172.3,191.2V490l-6.3,2v18.1h22.6v-87.8H320v67.4l-5.8,2.7
		v17.7h22v-319H172.3z"/>
	<circle fill="#5B5B59" cx="334.7" cy="76.7" r="4.1"/>
	<circle fill="#848484" cx="584.9" cy="188.7" r="2.6"/>
	<g>
		<path fill="#D13447" d="M330.7,489.8l-0.6-409h6.5l0.6,409H330.7z"/>
	</g>
	<g>
		<path fill="#D13447" d="M317.2,423.7H191.1v65.5h-5.3v-70.8h136.7L317.2,423.7z"/>
	</g>
	<polygon fill="#FF6679" points="292,258.2 319.1,221.9 322.3,225.6 295.9,260.7 	"/>
	<polygon fill="#FF6679" points="317.2,243.8 317.2,401 207.8,401 204,406.2 322.5,406.2 322.5,237.9 	"/>
	<polygon fill="#FF6679" points="322.5,240.6 322.5,195.2 317.2,205.9 317.2,248.8 	"/>
	<polygon fill="#F4404E" points="190.4,406.9 190.4,400.6 189.2,394.4 185.3,399 187.1,407.6 	"/>
	<g>
		<polygon fill="#CE455C" points="324.1,115 312.7,115 312.7,191.1 310.2,191.1 310.2,70.4 324.1,70.4 		"/>
	</g>
	<rect x="172.3" y="169.2" fill="#FF6679" width="4.8" height="320.6"/>
	<g>
		<polygon fill="#F4404E" points="335.8,81.8 324.3,81.8 324.3,162.4 321.8,162.4 321.8,34.7 335.8,34.7 		"/>
	</g>
	<rect x="165.8" y="488.7" fill="#F4404E" width="28.6" height="4.1"/>
	<rect x="314.1" y="488.7" fill="#F4404E" width="28.6" height="4.1"/>
	<polygon fill="#FF6679" points="322.5,418.4 322.5,489.2 317.2,489.2 317.2,423.7 	"/>
	<g opacity="0.5">
		<rect x="177.1" y="173.2" fill="#FF6679" width="10.7" height="19.5"/>
	</g>
	<rect x="172.3" y="487.6" fill="#8E1A28" width="16.9" height="2.1"/>
	<rect x="317.5" y="487.6" fill="#8E1A28" width="16.9" height="2.1"/>
	<circle opacity="0.8" fill="#C3C6D8" enable-background="new    " cx="577" cy="205.6" r="1"/>
	<circle opacity="0.8" fill="#C3C6D8" enable-background="new    " cx="594.2" cy="205.6" r="1"/>
	<g>
		<polygon fill="#F4404E" points="186,192.9 175.8,192.4 332.7,68.6 335.8,75.2 		"/>
	</g>
	<g>
		<polygon fill="#FF6679" points="190.5,403.6 186.1,399.8 322.6,217 322.5,225.3 		"/>
	</g>
	<g>
		<polygon fill="#D13447" points="191.8,406.6 190.3,402.3 317.7,231.3 319.2,235.6 		"/>
	</g>
</g>
<g id="gantry">
	<rect x="166.9" y="500.4" fill="#4E4E4C" width="26.3" height="21.5"/>
	<rect x="315.3" y="500.4" fill="#4E4E4C" width="26.3" height="21.5"/>
	<rect x="165.8" y="489.7" fill="#F4404E" width="28.6" height="21.5"/>
	<rect x="314.1" y="489.7" fill="#F4404E" width="28.6" height="21.5"/>
</g>
</svg>
