<svg xmlns="http://www.w3.org/2000/svg" width="512" height="512" viewBox="0 0 512 512">
  <defs>
    <style>
      .cls-1, .cls-2, .cls-5 {
        fill: #fff;
      }

      .cls-1, .cls-3, .cls-4 {
        fill-rule: evenodd;
      }

      .cls-2, .cls-4 {
        stroke: #fff;
      }

      .cls-2 {
        stroke-width: 7px;
      }

      .cls-3, .cls-4 {
        fill: #303156;
      }

      .cls-4 {
        stroke-width: 15px;
      }
    </style>
  </defs>
  <path id="Rounded_Rectangle_1" data-name="Rounded Rectangle 1" class="cls-1" d="M204,437.773V255.227A22.227,22.227,0,0,1,226.227,233H226.4a22.227,22.227,0,0,1,22.227,22.227V437.773"/>
  <path id="Rounded_Rectangle_1_copy_3" data-name="Rounded Rectangle 1 copy 3" class="cls-1" d="M193.454,275v22.512a22.227,22.227,0,0,1-44.454,0V274.333m0-7.666V139.255a22.227,22.227,0,0,1,44.454,0V265.667"/>
  <path id="Rounded_Rectangle_1_copy_6" data-name="Rounded Rectangle 1 copy 6" class="cls-1" d="M149,274.333m0-7.666V139.255a22.227,22.227,0,0,1,44.454,0V265.667"/>
  <path id="Rounded_Rectangle_1_copy_4" data-name="Rounded Rectangle 1 copy 4" class="cls-1" d="M371.223,263.81c3.819,13.05,6.322,21.605,6.322,21.605A22.227,22.227,0,1,1,334.881,297.9l-6.51-22.246m-2.153-7.358L290.436,146.013A22.227,22.227,0,0,1,333.1,133.528l35.5,121.324"/>
  <path id="Rounded_Rectangle_1_copy_5" data-name="Rounded Rectangle 1 copy 5" class="cls-1" d="M371.223,263.81m-42.852,11.844-2.153-7.358L290.436,146.013A22.227,22.227,0,0,1,333.1,133.528l35.5,121.324"/>
  <path id="Rounded_Rectangle_1_copy" data-name="Rounded Rectangle 1 copy" class="cls-1" d="M259.375,437.773V255.227A22.227,22.227,0,0,1,281.6,233h0.171A22.227,22.227,0,0,1,304,255.227V437.773"/>
  <path id="Rounded_Rectangle_2" data-name="Rounded Rectangle 2" class="cls-1" d="M224.123,113.472H283.7a20,20,0,0,1,20,20V279.73a49.789,49.789,0,0,1-99.577,0V133.472A20,20,0,0,1,224.123,113.472Z"/>
  <circle class="cls-2" cx="255.234" cy="61.453" r="42.234"/>
  <path class="cls-3" d="M256,6c24.853,0,45,21.664,45,48.388,0,1.378-20.147,0-45,0s-45,.61-45,0C211,27.664,231.147,6,256,6Z"/>
  <path class="cls-3" d="M286.34,55c0-7.18-.779-13,0-13C303.273,42,317,47.82,317,55"/>
  <path id="Rounded_Rectangle_5" data-name="Rounded Rectangle 5" class="cls-3" d="M389.083,270.883c4.14-1.04,8.259,1.157,9.2,4.906L447.492,471.7c0.942,3.749-1.651,7.632-5.79,8.671s-8.258-1.157-9.2-4.906L383.293,279.554C382.352,275.805,384.944,271.922,389.083,270.883Z"/>
  <path id="Rounded_Rectangle_6_copy" data-name="Rounded Rectangle 6 copy" class="cls-3" d="M493,484v6a6,6,0,0,1-6,6H421a6,6,0,0,1-6-6v-6"/>
  <path id="Rounded_Rectangle_6_copy_2" data-name="Rounded Rectangle 6 copy 2" class="cls-3" d="M419,484v-6a6,6,0,0,1,6-6h66a6,6,0,0,1,6,6v6"/>
  <path id="Rounded_Rectangle_3" data-name="Rounded Rectangle 3" class="cls-4" d="M213.674,110.805H289.7a30,30,0,0,1,30,30V265.733a30,30,0,0,1-30,30H213.674a30,30,0,0,1-30-30V140.805A30,30,0,0,1,213.674,110.805Z"/>
  <circle class="cls-5" cx="252.125" cy="245.938" r="16"/>
  <path id="Rounded_Rectangle_4" data-name="Rounded Rectangle 4" class="cls-1" d="M229.462,146.368h0a7.557,7.557,0,0,1,7.557,7.557v54.234a7.557,7.557,0,0,1-7.557,7.557h0a7.557,7.557,0,0,1-7.557-7.557V153.925A7.557,7.557,0,0,1,229.462,146.368Z"/>
  <path id="Rounded_Rectangle_4_copy" data-name="Rounded Rectangle 4 copy" class="cls-1" d="M251.689,146.368h0a7.557,7.557,0,0,1,7.557,7.557v54.234a7.557,7.557,0,0,1-7.557,7.557h0a7.557,7.557,0,0,1-7.557-7.557V153.925A7.557,7.557,0,0,1,251.689,146.368Z"/>
  <path id="Rounded_Rectangle_4_copy_2" data-name="Rounded Rectangle 4 copy 2" class="cls-1" d="M273.916,146.368h0a7.557,7.557,0,0,1,7.557,7.557v54.234a7.557,7.557,0,0,1-7.557,7.557h0a7.557,7.557,0,0,1-7.557-7.557V153.925A7.557,7.557,0,0,1,273.916,146.368Z"/>
  <path id="Rounded_Rectangle_6" data-name="Rounded Rectangle 6" class="cls-3" d="M289.38,293.482c5.627-2.46,8.435-4.748,11.441.736,31.341,53.11,41.052,138.962,49.052,148.434,0.678,0.791,3.461,15.215-3.511,15.365-3.228.607-6,2.842-6.991,7.2-1.191,3.952-.607,10.03-1.673,8.856-18.684-16.342-29.229-124.373-61.6-177.032C272.411,292.126,283.961,296.55,289.38,293.482Z"/>
  <path id="Rounded_Rectangle_6_copy_3" data-name="Rounded Rectangle 6 copy 3" class="cls-3" d="M348.6,479.609a0.834,0.834,0,0,0-.115.467,0.148,0.148,0,0,0,.159.043c0.022,0,.046-0.007.073-0.013s0.058-.014.09-0.023c0.066-.019.142-0.045,0.232-0.079,5.92-3.061,12.614-4.757,17.443-12.767,4.924-7.531,7.983-21.376,8.834-37.655,1-16.342-.2-35.129-0.268-54.1C375.182,355.9,377.2,337.43,388,305c0.646-1.8,4.017-2.541,4-3,0-.115-2.958-2.961-3-3s2.078-5.033,2-5c-0.155.066-4.278-9.946-5-8-0.6,1.611-1.973,19.1-4.342,22.4-4.818,6.844-10.351,13.218-13.907,14.347h0c-3.659,1.677-6.207,1.749-8.085,2.316-0.117.034-.231,0.069-0.342,0.107s-0.22.076-.326,0.117a5.351,5.351,0,0,0-.6.276,3.962,3.962,0,0,0-1.02.775,5.856,5.856,0,0,0-1.333,2.865c-4.376,20.984-.463,60.1-3.462,87.968C354.55,446.494,338.563,459.438,334,461c-0.236.1,2.624,5.072,2.241,6.111a12.828,12.828,0,0,0-.506,1.752,10.629,10.629,0,0,0-.236,1.968c-0.055,2.69,3.125,5.387,5.5,7.169"/>
  <path id="Rounded_Rectangle_8_copy_2" data-name="Rounded Rectangle 8 copy 2" class="cls-5" d="M204,445h45a0,0,0,0,1,0,0v33a20,20,0,0,1-20,20H204a0,0,0,0,1,0,0V445A0,0,0,0,1,204,445Z"/>
  <path id="Rounded_Rectangle_8_copy_2-2" data-name="Rounded Rectangle 8 copy 2" class="cls-5" d="M199,472h37a0,0,0,0,1,0,0v8a18,18,0,0,1-18,18H173a0,0,0,0,1,0,0v0A26,26,0,0,1,199,472Z"/>
  <path id="Rounded_Rectangle_8_copy_3" data-name="Rounded Rectangle 8 copy 3" class="cls-5" d="M259,446h45a0,0,0,0,1,0,0v53a0,0,0,0,1,0,0H279a20,20,0,0,1-20-20V446A0,0,0,0,1,259,446Z"/>
  <path id="Rounded_Rectangle_8_copy_3-2" data-name="Rounded Rectangle 8 copy 3" class="cls-5" d="M272,473h37a26,26,0,0,1,26,26v0a0,0,0,0,1,0,0H290a18,18,0,0,1-18-18v-8A0,0,0,0,1,272,473Z"/>
</svg>
