<svg id="Capa_1" data-name="Capa 1" xmlns="http://www.w3.org/2000/svg" viewBox="0 0 24 24"><defs><style>.cls-1{fill:#101932;}</style></defs><title>follow</title><path class="cls-1" d="M23.3,3.77H20.23V.7a.7.7,0,1,0-1.4,0V3.77H15.77a.7.7,0,1,0,0,1.4h3.06V8.23a.7.7,0,1,0,1.4,0V5.17H23.3a.7.7,0,0,0,0-1.4Z" transform="translate(0 0)"/><path class="cls-1" d="M8.23,15.06A8.25,8.25,0,0,0,0,23.3a.7.7,0,0,0,.7.7H15.77a.7.7,0,0,0,.7-.7A8.25,8.25,0,0,0,8.23,15.06ZM1.44,22.59a6.83,6.83,0,0,1,13.59,0Z" transform="translate(0 0)"/><path class="cls-1" d="M8.23,3A4.47,4.47,0,1,0,12.7,7.48,4.47,4.47,0,0,0,8.23,3Zm0,7.53A3.06,3.06,0,1,1,11.3,7.48,3.07,3.07,0,0,1,8.23,10.54Z" transform="translate(0 0)"/></svg>