<svg viewBox="0 0 568.47 397.72"><defs><style>.cls-1{fill:#274c9b;}.cls-2{fill:#fff;}.cls-3{fill:none;stroke:#fff;stroke-linecap:round;stroke-linejoin:round;}</style><symbol id="New_Symbol_3" data-name="New Symbol 3" viewBox="0 0 177.19 123.73"><path class="cls-1" d="M112.91,21.29c21.26,8.49,42.52-8.48,63.78,0V92c-11.95-4.77-23.9-1.49-35.85.78-9.31,1.77-18.62,2.94-27.93-.78a28.62,28.62,0,0,0,4.15-.72c0-1.65.09-3.3.13-4.94,0-.4,0-.8,0-1.2a45.5,45.5,0,0,0,4.5-2.11q0-6.58,0-13.19a36.48,36.48,0,0,1-4.12-1l.11-16c0-.41,0-.81,0-1.21,0,0,8.84-3.84-2.19-11.83a7.44,7.44,0,0,1,.44-2.83c.39,0,.79,0,1.18.06l-1.17-2.75c.25-.67.49-1.34.73-2,0,.08,4.57-.89,2.28-4.62C118.31,26.41,112.91,21.45,112.91,21.29Z"/><path class="cls-2" d="M64,98.83l8.66-4.91c.79,4.4,1.51,8.73,2.27,13.11-.26,0-.46,0-.67,0l-7.71,0c-.75,0-1.12-.26-1.25-1q-.66-3.48-1.29-7A1.31,1.31,0,0,1,64,98.83Z"/><path class="cls-2" d="M75.57,109.23c1.12,0,2.2,0,3.27,0a1.13,1.13,0,0,1,1,1.07c0,1.58,0,3.15,0,4.72-.73.13-.83.08-1-.53-.12-.42-.21-.86-.32-1.37-.45,0-.89,0-1.33,0a.42.42,0,0,0-.48.41c0,.26,0,.52-.07.77-.06.76-.27.94-1.13.92Z"/><path class="cls-2" d="M66.64,115.21c-.86-.47-.7-1.29-.76-2H64l-.22,2.17-1-.25c-.06-1.8,0-3.58.13-5.43L67,109a3.5,3.5,0,0,1,.07.41c0,1.6,0,3.2,0,4.81A1.19,1.19,0,0,1,66.64,115.21Z"/><path class="cls-2" d="M72.84,115.22c-.77-.54-.31-1.35-.55-2.06H70.46l-.7,2a3,3,0,0,1-.45-1.43c0-1.3,0-2.6,0-3.89,0-.44.14-.6.58-.65a16.6,16.6,0,0,1,2.11-.13c.92,0,1.33.37,1.38,1.27.07,1.37,0,2.74.06,4.1C73.42,114.83,73.17,115,72.84,115.22Z"/><path class="cls-2" d="M39.92,54.58c-.13.33-.21.55-.31.76-1,2.11-1.92,4.21-2.86,6.32a31.74,31.74,0,0,0-2.88,14.59,32.55,32.55,0,0,0,1.21,7.32c.07.25.14.5.2.75a1.85,1.85,0,0,1-.22,1.5c-.45.69-.84,1.42-1.33,2.09a8.44,8.44,0,0,1-6.63,3.54c-1.62.11-3.23.36-4.85.56a4.9,4.9,0,0,0-.82.2,7.24,7.24,0,0,0-5.58,6.86,8.61,8.61,0,0,0,4.66,8.76c.78.44,1.58.84,2.36,1.3A6.48,6.48,0,0,1,26,115s0,.08-.07.17H22.76l-.24-1a5.88,5.88,0,0,0-4-4.45,1.11,1.11,0,0,0-.46,0A7.63,7.63,0,0,1,20.48,115c-.07,0-.1.1-.14.1a30.26,30.26,0,0,1-5.3,0,7.1,7.1,0,0,1-5.41-3.45,13.82,13.82,0,0,1-1.69-4.42,26.5,26.5,0,0,1-.35-8.66A51.92,51.92,0,0,1,9.48,89.4a2.23,2.23,0,0,1,1.89-1.74,30.13,30.13,0,0,0,3.13-.86,5.69,5.69,0,0,0,3.89-4c.47-1.63.82-3.3,1.15-5a70.36,70.36,0,0,1,2.94-10.56,16.84,16.84,0,0,1,1.82-3.43c.53-.81,1.08-1.61,1.61-2.41.14-.22.26-.44.48-.79l-2.32.4c-2.7.47-5.38,1-8.09,1.39a14.92,14.92,0,0,1-7.88-.76A11.94,11.94,0,0,1,.29,52.77,12.9,12.9,0,0,1,5.69,39.4a17.92,17.92,0,0,1,7.75-2.93,29.54,29.54,0,0,1,5.72-.2c2.59.14,5.19.22,7.78.33l8.85.39A19.84,19.84,0,0,0,41,36.75a4.54,4.54,0,0,0,3.78-3.57,4.32,4.32,0,0,0-1.87-4.69,7.58,7.58,0,0,0-3.33-1.09,17.18,17.18,0,0,0-8.48,1.09,16.23,16.23,0,0,1-6.64,1.2,12.52,12.52,0,0,1-10.6-6.07c-.41-.66-.74-1.37-1.1-2.06a3.85,3.85,0,0,1-.2-.57,1,1,0,0,1,.18-.09c2.29-.39,2.84-.17,4,1.89A8.44,8.44,0,0,0,23.55,27a.62.62,0,0,0,.4-.07,4.5,4.5,0,0,0-.41-.25,12.8,12.8,0,0,1-3.08-2.12,10.9,10.9,0,0,1-3.31-6.65c-.12-.81-.15-1.64-.22-2.48a3,3,0,0,1,2.75,2.47c.1.46.18.93.3,1.38a7.74,7.74,0,0,0,4.27,5.1,8.42,8.42,0,0,0,3.32.9c-.18-.13-.35-.28-.55-.4a11,11,0,0,1-5.49-8.47,13.82,13.82,0,0,1,.27-4.92,1.18,1.18,0,0,1,1-1c.88-.13,1.77-.17,2.75-.26-.23,1.08-.44,2-.64,3a9.79,9.79,0,0,0,0,4.14,7.33,7.33,0,0,0,3.69,5A12.32,12.32,0,0,0,33,23.72c2.54.39,5.09.75,7.63,1.14a11.15,11.15,0,0,1,3.68,1.21,7,7,0,0,1,3.48,8.18,6.13,6.13,0,0,1-2.31,3.39A12,12,0,0,1,39.52,40a30.59,30.59,0,0,1-5.58.08c-3.42-.16-6.84-.36-10.26-.52-1.72-.09-3.45-.15-5.17-.21a17.14,17.14,0,0,0-7.09,1.07,12.58,12.58,0,0,0-5.31,3.88,9.06,9.06,0,0,0-1.8,7.87,7.87,7.87,0,0,0,7.46,6.25A29.23,29.23,0,0,0,17.83,58l10.5-1.64L39.1,54.68C39.33,54.64,39.56,54.62,39.92,54.58Z"/><path class="cls-2" d="M48.79,49,83.28,64.71c0,.11,0,.19,0,.25q-3.18,6.84-6.36,13.67c-.5,1.07-1.08,2.1-1.62,3.15A23.86,23.86,0,0,1,61.13,93.7a38.6,38.6,0,0,1-9.57,1.85l-2.12.15a2.13,2.13,0,0,1-2-.89,40.77,40.77,0,0,1-6.31-10.7,26.14,26.14,0,0,1-1.61-11.75,22.83,22.83,0,0,1,1.84-7.17C43.67,60.11,46,55,48.27,50,48.41,49.67,48.59,49.39,48.79,49Zm6.07,27.55.34.36a5.44,5.44,0,0,0,2.68,1.62c.7.19.73.22.73,1,0,1,0,2,0,3A1.47,1.47,0,0,1,58,84a1.55,1.55,0,0,0-.55,1.78,1.6,1.6,0,0,0,1.28,1.27,1.76,1.76,0,0,0,2.08-.94,1.73,1.73,0,0,0-.6-2.25,1,1,0,0,1-.47-.88c0-1.23,0-2.46,0-3.69,0-.55,0-.62.56-.73a5.24,5.24,0,0,0,2.89-1.68c.09-.1.2-.18.32-.29.66.37,1.29.74,1.93,1.08a.76.76,0,0,1,.43.86A3.65,3.65,0,0,0,66,79.88a2.74,2.74,0,0,0,3.73,1.53,2.78,2.78,0,1,0-2.54-4.93c-.26.15-.51.34-.76.51l-1.93-1.11c-.47-.27-.48-.29-.31-.85a5.22,5.22,0,0,0,.06-2.93c0-.12-.05-.23-.08-.35a.59.59,0,0,1,.3-.71c1-.57,2-1.15,3-1.74l.45.39a3.9,3.9,0,0,0,6.54-3A3.86,3.86,0,0,0,71,63a3.9,3.9,0,0,0-4.15,2.82,3.94,3.94,0,0,0,0,2c.07.3.08.56-.24.74-1,.59-2.07,1.2-3.14,1.82a5.82,5.82,0,0,0-3.71-2.17c0-.65,0-1.26,0-1.87a.86.86,0,0,1,.61-1,2.76,2.76,0,0,0,0-5,2.63,2.63,0,0,0-2.92.38,2.67,2.67,0,0,0-.92,2.81A2.64,2.64,0,0,0,58,65.38c.32.14.6.28.59.7,0,.65,0,1.31,0,2a19.63,19.63,0,0,0-2.06.9,19,19,0,0,0-1.81,1.32c-1.35-.77-2.64-1.54-4-2.26a1.61,1.61,0,0,1-1-1.43A1.74,1.74,0,0,0,48,65a2,2,0,0,0-1.94,1.15,1.9,1.9,0,0,0,.59,2.29,1.87,1.87,0,0,0,2.07.19.83.83,0,0,1,.92,0c1.36.82,2.73,1.6,4.1,2.39.28.17.5.34.38.73a5.82,5.82,0,0,0,0,3.48.43.43,0,0,1-.18.55L51.89,77a3.35,3.35,0,0,0-2.42-1A3,3,0,0,0,49,82a2.92,2.92,0,0,0,3.43-2.13,5.55,5.55,0,0,0,.1-1.47.63.63,0,0,1,.32-.65C53.51,77.38,54.15,77,54.86,76.59Z"/><path class="cls-2" d="M129.72,95.51c.28-.12.48-.24.7-.31a13.32,13.32,0,0,0,4.42-2.49c1.26-1.07,2.45-2.21,3.67-3.33.64-.59,1.25-1.22,1.89-1.81a4.39,4.39,0,0,1,.87-.61c.48-.26.71-.2.85.31a11.86,11.86,0,0,1,.54,2.47,15.38,15.38,0,0,1-1.2,7c-.57,1.37-1.21,2.71-1.85,4.06a4.1,4.1,0,0,1-.68,1,1.44,1.44,0,0,1-2.27,0,56,56,0,0,0,3.51-8.33l-.13,0c-.11.25-.22.5-.32.75a48.83,48.83,0,0,1-2.8,6.11,26.11,26.11,0,0,1-12,11.21c-3.17,1.46-6.4,2.8-9.59,4.22a2.16,2.16,0,0,1-2,0c-3.14-1.47-6.29-2.92-9.47-4.32-6.4-2.83-10.61-7.71-13.21-14.09-1-2.33-1.78-4.71-2.67-7.08a2.51,2.51,0,0,0,.2,1.07A43.35,43.35,0,0,0,91,98.75c.49,1,1,2,1.45,3.07a1.63,1.63,0,0,1-2.6-.35c-1.29-2.6-2.71-5.15-3.26-8a12.44,12.44,0,0,1,.13-5.33,4.48,4.48,0,0,1,.3-.87c.25-.56.6-.67,1.13-.36a2.85,2.85,0,0,1,.59.51c.57.62,1.13,1.26,1.7,1.89A26.15,26.15,0,0,0,95.9,93.8a26.39,26.39,0,0,0,2.72,1.34c.17.08.36.12.53.19a.38.38,0,0,1,.23.57c-.21.45-.4.91-.65,1.34a3.3,3.3,0,0,0,.34,4.07,12.8,12.8,0,0,0,7.47,4.42,4.62,4.62,0,0,0,1.34,0,3,3,0,0,0,2.78-2.5,43,43,0,0,0,.53-4.92c.1-5,.1-9.92.13-14.88a1.07,1.07,0,0,0-.17-.65A5.54,5.54,0,0,1,110,79.24c0-.61.07-1.22.11-1.89l3.89-.5v6c.22.09.39.17.56.22,1,.26,1.91.54,2.87.78a8.77,8.77,0,0,0,1.23.13v-2l-1.32,0a1.14,1.14,0,0,1-1-.66.89.89,0,0,1,.81-.48l4.26,0s.08,0,.23.1a22.2,22.2,0,0,1-.07,3.25,1.2,1.2,0,0,1-1.2,1c-1.15.05-.55.06-1.71.08h-.74c0,.28,0,.51,0,.74,0,3.07,0,6.14,0,9.21,0,2.24.16,4.48.28,6.72a5.42,5.42,0,0,0,.68,2.51,2.41,2.41,0,0,0,2.43,1.36,13.52,13.52,0,0,0,4.86-1.12,9,9,0,0,0,3.15-2.37,5.07,5.07,0,0,0,.83-5.8Z"/><path class="cls-2" d="M78.79,87.74,90.78,62c-.27-.14-.49-.26-.72-.36l-7.15-3.26c-1.43-.65-1.56-.91-1.26-2.46a2.61,2.61,0,0,1,.15-.45,7.39,7.39,0,0,0,5.08,2.28,7.47,7.47,0,0,0,5.05-2.43A18.8,18.8,0,0,1,88.72,69l6,4c.75-1.33,1.46-2.59,2.22-3.92.68.27,1.33.52,2,.81a.89.89,0,0,1,.59.81,7,7,0,0,0,2.22,4.84,1.68,1.68,0,0,1,.1.18l-2.49,3.77.34.38a9.54,9.54,0,0,1,8.27-3.39c0,.34,0,.64,0,.94,0,1.1,0,2.22.18,3.31a7.67,7.67,0,0,0,1.63,3.72c.15.18.29.37.46.59l-8.92,6.85c-.09-.07-.17-.11-.21-.18a6.83,6.83,0,0,0-4.36-2.93c-.92-.22-1.85-.37-2.77-.58a5.64,5.64,0,0,1-3.24-1.89,5.71,5.71,0,0,1-.49-.69,1.1,1.1,0,0,1,.06-1.32c.14-.2.28-.38.42-.57a9.83,9.83,0,0,0,2.12-5.78c-.11.18-.23.36-.33.55a19.29,19.29,0,0,1-4.76,5.83,16.45,16.45,0,0,1-8.41,3.43A4.42,4.42,0,0,1,78.79,87.74Z"/><path class="cls-2" d="M112.7,74.64l-.14-2h-2l-.19,1.9a2.59,2.59,0,0,1-.44-.21,2.49,2.49,0,0,1-1-1.44,3.78,3.78,0,0,1,.37-2.81,2.47,2.47,0,0,1,2.07-1.2c0-5.53,0-11.07,0-16.49-.77-.71-1.52-1.3-2.15-2A6.31,6.31,0,0,1,108,43.22a6.84,6.84,0,0,1,6.13-4.35A7.21,7.21,0,0,1,118.52,40a6.72,6.72,0,0,1,2.56,8.51A8.46,8.46,0,0,1,118.3,52a.89.89,0,0,0-.44.81c0,4.79,0,9.58,0,14.37,0,.14,0,.28,0,.49h3.75c0,1.57,0,3.06,0,4.59a3.75,3.75,0,0,1-.52.07c-1.82,0-2,0-3.8,0a.92.92,0,0,1-1-.61c.59-.92,1.57-.36,2.36-.61V69.3c-2-.64-4-.23-6-.31a3.33,3.33,0,0,1,1.47,3.51A2.93,2.93,0,0,1,112.7,74.64Zm1.92-27h2.61c.6,0,.79-.16.93-.74A3.69,3.69,0,0,0,116.69,43a3.64,3.64,0,0,0-5.63,3.7c.15.76.32.9,1.09.91Z"/><path class="cls-2" d="M60.21,115.23c-.65,0-1.22.07-1.78.07a2.23,2.23,0,0,1-2.06-1.16c-1.09-2-2.93-2.52-5-2.69l0,.09s0,0,0,.06l3.38,3.14c-.07.28-.19.47-.51.5a23.46,23.46,0,0,1-7.88-.44,11.5,11.5,0,0,1-4.48-2.35,20.16,20.16,0,0,1-7-12.49c-.09-.49-.13-1-.22-1.47a2.25,2.25,0,0,1,.31-1.7c1.07-1.64,2.15-3.27,3.28-5a4.9,4.9,0,0,1,.42.46c2.18,2.88,4.37,5.76,6.53,8.65a3.33,3.33,0,0,1,.56,1,10.92,10.92,0,0,0,7.69,7.64c.72.23,1.45.42,2.16.68a12.66,12.66,0,0,1,2.14.92A5.07,5.07,0,0,1,60.21,115.23Z"/><path class="cls-2" d="M98.92,18.77a11.8,11.8,0,0,0-6.79.85A14.72,14.72,0,0,0,86.84,24l-.5-.55a15.94,15.94,0,0,0-3.2-2.88,11.08,11.08,0,0,0-7.75-1.82l-.7.05-7-14.36c2,.51,3.52,1.31,3.91,3.46.43-.13.81-.25,1.19-.34a12.19,12.19,0,0,1,1.31-.27A1.33,1.33,0,0,1,75.49,8a3.78,3.78,0,0,1,.3.72A1.33,1.33,0,0,1,75,10.48c-.46.23-1,.39-1.46.59a1.31,1.31,0,0,0,0,.28,7.1,7.1,0,0,0,5.22,5.58A5.41,5.41,0,0,0,85.59,12a8.34,8.34,0,0,0-.37-3.14,24.08,24.08,0,0,1-.81-3.22A6,6,0,0,1,86.8,0a4.25,4.25,0,0,1,.43.31A6.14,6.14,0,0,1,89,6.7c-.32,1.28-.7,2.55-1,3.84a5.74,5.74,0,0,0,.69,3.9A5.12,5.12,0,0,0,94.7,17a7.07,7.07,0,0,0,5.4-5.86l-.47-.23c-.29-.12-.58-.21-.86-.34a1.7,1.7,0,0,1-.62-2.67,1.14,1.14,0,0,1,1-.47c.66,0,1.31.13,2,.22.28,0,.54.13.87.21.43-2,1.83-2.95,3.72-3.32C105.61,5.09,100.69,15.46,98.92,18.77Z"/><path class="cls-2" d="M48.18,99.44c0-1.11.23-1.42,1.29-1.59,1.38-.21,2.76-.4,4.13-.59A42.63,42.63,0,0,0,63.44,95,26.4,26.4,0,0,0,77.93,81.45c1.73-3.56,3.31-7.2,5-10.81.58-1.26,1.2-2.51,1.75-3.79a8.64,8.64,0,0,1,1.94-2.55l.52.39c-.62,1.4-1.22,2.76-1.84,4.11l-5.47,12A28.87,28.87,0,0,1,67.35,94.63a33.13,33.13,0,0,1-10.23,3.61c-2.37.42-4.77.68-7.15,1C49.39,99.32,48.81,99.37,48.18,99.44Z"/><path class="cls-2" d="M45.78,98.25c-.1-.1-.17-.15-.23-.22A52.12,52.12,0,0,1,38.61,87,28.55,28.55,0,0,1,36,74.45a31.51,31.51,0,0,1,2.33-10.88c1.88-4.74,4.08-9.34,6.22-14,.46-1,.9-2,1.37-3,.23-.5.25-.49.82-.35a6.42,6.42,0,0,1-.51,3c-2,4.26-3.88,8.55-5.86,12.81a31.39,31.39,0,0,0-2.82,9.38,27.6,27.6,0,0,0,1.62,13.22,41.15,41.15,0,0,0,5.43,9.82c.43.59.88,1.17,1.31,1.76C46.49,97,46.47,97.44,45.78,98.25Z"/><path class="cls-2" d="M118.36,26.92a3,3,0,0,1,.38,4.41l-1.37,1.3h2.22c0,.1,0,.16,0,.19-.59,1.21-1.18,2.42-1.78,3.62a1.08,1.08,0,0,1-1,.6h-4.6a.92.92,0,0,1-1-.58c-.58-1.21-1.2-2.4-1.84-3.69,1-.15,1.93,0,3-.13-.25-.25-.43-.42-.6-.61-.5-.53-1-1.05-1.47-1.62a4,4,0,0,1-.71-3.09,13.59,13.59,0,0,1,1.21-3.61c0-.06.1-.09.2-.17a2,2,0,0,1,.09.42c0,.7,0,1.41-.07,2.12a5.42,5.42,0,0,0,1.23,4.22c.48.58.94,1.18,1.41,1.77a1.36,1.36,0,0,0,2.31,0c.49-.6,1-1.2,1.5-1.78a3.4,3.4,0,0,0,.84-2.13C118.31,27.79,118.33,27.42,118.36,26.92Z"/><path class="cls-2" d="M86.25,62.21a2,2,0,0,1-2.13.54,6.71,6.71,0,0,1-.78-.32L50.48,47.49a7.21,7.21,0,0,1-1.06-.57,1.87,1.87,0,0,1-.79-1.81Z"/><path class="cls-2" d="M98.15,47c.3.47.63.93.9,1.41a19.34,19.34,0,0,1,2,5.66,27.45,27.45,0,0,1,.43,8.53,15.66,15.66,0,0,1-1.14,4.51c-.08.19-.18.38-.28.57a.94.94,0,0,1-.12.18c-.55-.18-1.07-.33-1.57-.51a.77.77,0,0,1-.57-.94,5.73,5.73,0,0,1,.16-.69,26.06,26.06,0,0,0,1-8.47,22.47,22.47,0,0,0-1.34-6.64,3,3,0,0,1-.07-2c.16-.51.31-1,.47-1.55Z"/><path class="cls-2" d="M93.57,52.3l1.81-.81a8.44,8.44,0,0,1,1,2.46,20.06,20.06,0,0,1,.4,6.69,23.3,23.3,0,0,1-1.56,6.73,10,10,0,0,1-1.35,2.47l-2.19-1.48a21.79,21.79,0,0,0,2.48-7.83A24.4,24.4,0,0,0,93.57,52.3Z"/><path class="cls-2" d="M57.24,41.9l-2-1.11c.15-.25.26-.46.38-.65a23.87,23.87,0,0,1,12-9.9c.88-.34,1.78-.64,2.65-1s.76.13,1.57.57A30.86,30.86,0,0,0,57.24,41.9Z"/><path class="cls-2" d="M71.85,20.23,70.6,22.81a1.73,1.73,0,0,1-1.24.86c-.41.11-.83.15-1.24.25L66,24.48c-.77.21-1.36,0-1.64-.69-.61-1.6-1.12-3.24-1.7-5A17.8,17.8,0,0,1,71.85,20.23Z"/><path class="cls-2" d="M108.46,24.56c-1.44-.3-2.82-.61-4.2-.88a1.65,1.65,0,0,1-1.25-.94c-.39-.77-.77-1.56-1.15-2.32,1.29-1.27,6.51-2.06,9-1.47C110.5,21,109.33,22.68,108.46,24.56Z"/><path class="cls-2" d="M59.29,47.6l-1.86-.86c.11-.37.19-.71.31-1a17.47,17.47,0,0,1,2.64-4.66,26.84,26.84,0,0,1,8.3-7.17l.51-.25a.66.66,0,0,1,.21,0,5.68,5.68,0,0,1,0,.59,3.58,3.58,0,0,1-1.55,2.52,22.67,22.67,0,0,0-7,8c-.4.72-.77,1.46-1.15,2.19C59.55,47.14,59.43,47.34,59.29,47.6Z"/><path class="cls-2" d="M105.87,60.33h-2c0-.29,0-.56-.06-.83a33.54,33.54,0,0,0-.73-6.31,22.9,22.9,0,0,0-3.82-8.67l-.16-.23a.58.58,0,0,1,0-.14c.51-.56.9-.62,1.42-.13a8.72,8.72,0,0,1,1,1.16A22.93,22.93,0,0,1,105.12,53a21.79,21.79,0,0,1,.84,5.79C106,59.3,105.9,59.79,105.87,60.33Z"/><path class="cls-2" d="M101.85,42.29l.83-.78c.16.14.32.25.44.38.81.92,1.62,1.84,2.41,2.78a1.35,1.35,0,0,1,.29.76,7,7,0,0,0,2.56,5.39,3.81,3.81,0,0,1,1.25,2,9.75,9.75,0,0,1,.34,2.52c0,1.39,0,2.78,0,4.17v.69a3.33,3.33,0,0,1-1.76.07c0-.45,0-.92-.08-1.38a30.71,30.71,0,0,0-2-9.52,24,24,0,0,0-3.72-6.4Z"/><path class="cls-2" d="M115.3,30.67c.15-.72.3-1.34.39-2a7.33,7.33,0,0,0,.08-1.55,2.34,2.34,0,0,0-1-1.73c.35,1.69-.8,2.75-1.28,4.09-.07-.46-.17-.91-.21-1.37a8,8,0,0,0-1-3.21,6,6,0,0,1-.41-4.92,3.21,3.21,0,0,1,1-1.59c0,.41-.07.82-.14,1.23a1.94,1.94,0,0,0,.87,2c.85.63,1.7,1.27,2.5,2a4.41,4.41,0,0,1,1.47,2.89A4.33,4.33,0,0,1,115.3,30.67Z"/><path class="cls-2" d="M56.91,34.59l-1.34-1.22a24.65,24.65,0,0,1,12.15-7.23c.62-.15,1.24-.28,1.87-.39s.8.09.91.47a.35.35,0,0,1-.19.47l-.39.17c-1,.46-2.11.93-3.17,1.38a29,29,0,0,0-6.74,4c-.81.65-1.64,1.27-2.46,1.9C57.36,34.28,57.17,34.41,56.91,34.59Z"/><path class="cls-2" d="M63.23,49.36l-1.94-.86A24.35,24.35,0,0,1,69.4,38.12c0,.9.21,1.62-.5,2.35a26.26,26.26,0,0,0-5.29,8.06Z"/><path class="cls-2" d="M121.66,78.56h-1.23c-1,0-2.07,0-3.1,0a1,1,0,0,1-1-.48c.58-.86,1.51-.34,2.29-.58V75.54c-.78-.2-1.67.25-2.31-.56a1,1,0,0,1,.88-.55h4.21a1.73,1.73,0,0,1,.24,0Z"/><path class="cls-2" d="M74.48,43.82c-1.38,3-2.73,5.83-4.1,8.78L68.83,52c.11-.36.21-.67.31-1a18.73,18.73,0,0,1,3.67-6.56A1.7,1.7,0,0,1,74.48,43.82Z"/><path class="cls-2" d="M71.47,42.09l-4.93,8.79-1.31-.62a22.83,22.83,0,0,1,5.58-8.65Z"/><path class="cls-2" d="M74.84,54.61c-.48-.2-.94-.35-1.38-.57a.88.88,0,0,1-.56-1.21,17.62,17.62,0,0,1,.56-1.74C74,49.8,74.51,48.52,75,47.23c0-.1.11-.19.21-.38a4,4,0,0,1,.92,3,9.4,9.4,0,0,1-.34,1.66C75.52,52.5,75.19,53.5,74.84,54.61Z"/><path class="cls-2" d="M110.84,38.39l-2,1.08-1.42-1.24c-.63-.57-1.22-1.18-1.89-1.71a3.84,3.84,0,0,1-1.28-2.86A18.89,18.89,0,0,1,110.84,38.39Z"/><path class="cls-2" d="M108.86,33.92l-7.25-4.26c.72-.3.9-.66,1.54-.51a19,19,0,0,1,4.26,1.48,1.08,1.08,0,0,1,.63.69c.29.84.61,1.67.93,2.5Z"/><path class="cls-2" d="M30.67,115.21H28.38l-1-4.67A3.89,3.89,0,0,1,30.67,115.21Z"/><path class="cls-2" d="M78.19,51.45l1.76.81a40.53,40.53,0,0,1-.63,4.38,4.81,4.81,0,0,1-1.85-1,1.58,1.58,0,0,1-.33-1.53A10.65,10.65,0,0,1,78.19,51.45Z"/><path class="cls-2" d="M102.22,17.63a2.21,2.21,0,0,1,1.86-2.4,9.24,9.24,0,0,1,2.49-.27l.19,1.63-2.29.53Z"/><path class="cls-2" d="M62.85,25.5,59,27.61l-1-1.43L62,24A4.69,4.69,0,0,1,62.85,25.5Z"/><path class="cls-2" d="M71.53,17.65l-4.6-1L67,15.2A3.31,3.31,0,0,1,71.53,17.65Z"/><path class="cls-2" d="M103.1,26.6a1.23,1.23,0,0,1,1.62-.6c.92.34,1.88.6,2.83.88.34.1.56.24.58.66a10.53,10.53,0,0,0,.29,1.36C106.59,28.16,104.88,27.37,103.1,26.6Z"/><path class="cls-2" d="M104.18,38.59a.64.64,0,0,1,.95.08c.69.71,1.42,1.38,2.12,2.06a.88.88,0,0,1,.12.19l-.89,1.4c-.69-.74-1.39-1.43-2-2.19A2.4,2.4,0,0,1,104.18,38.59Z"/><path class="cls-2" d="M59.19,77a3.62,3.62,0,0,1-3.64-3.5,3.61,3.61,0,1,1,7.22-.12A3.59,3.59,0,0,1,59.19,77Z"/><g id="tn0RqL.tif"><path class="cls-2" d="M107.14,20c.58,1.38.74,3.14,1.32,4.52-2.78.1-5-.26-7.7-.16.11.47.24.9.31,1.34a10.64,10.64,0,0,1-.74,6.63,5.39,5.39,0,0,1-3.56,3c-.37.1-.49.26-.36.6.34.8.67,1.6,1,2.39s.69,1.31.93,2a2.3,2.3,0,0,1-.91,2.78,6.42,6.42,0,0,1-3.2,1.09,7.22,7.22,0,0,1-3.65-.45,3.6,3.6,0,0,1-1.66-1.33.64.64,0,0,1,.13-1,10.35,10.35,0,0,1,.91-.69c.36-.25.76-.44,1.12-.67a2.71,2.71,0,0,0,1-3.65,14.53,14.53,0,0,1-10.79,0,2.72,2.72,0,0,0,1.21,3.77,17.52,17.52,0,0,1,1.71,1.14c.51.41.5.65.1,1.18a3.56,3.56,0,0,1-1.83,1.27,8,8,0,0,1-5.93-.4,2.5,2.5,0,0,1-1.69-2.53,5,5,0,0,1,.46-1.42c.42-.88.89-1.73,1.33-2.59a2.33,2.33,0,0,0,.14-.33c.33-.93.31-1-.58-1.3a6.18,6.18,0,0,1-3.86-4.85,10.83,10.83,0,0,1,.17-5.65c0-.12,0-.23.09-.4-2.85-.08-4.76.43-7.4.16.66-1.48,0-3.3.71-4.81a5.14,5.14,0,0,0,3.21,1.76,3.3,3.3,0,0,0,1.13,0,18.8,18.8,0,0,1,11.29.88,8.88,8.88,0,0,1,4.8,4.36c.09.18.21.34.34.56a5.36,5.36,0,0,0,.31-.5A9.4,9.4,0,0,1,92.77,22a18.25,18.25,0,0,1,10-.55,4.89,4.89,0,0,0,3.7-.87C106.67,20.43,106.85,20.27,107.14,20Zm-26,15.67a2.42,2.42,0,0,0,.6,0,.75.75,0,0,0,.47-.32,8.14,8.14,0,0,0-1-8,5,5,0,0,0-4.92-2.21c-1.56.23-1.34.14-1.28,1.59a2.93,2.93,0,0,0,2.45,3,6.22,6.22,0,0,0,1.55.09.65.65,0,0,1,.71.33,9.62,9.62,0,0,1,.89,2C80.9,33.31,81,34.48,81.18,35.71Zm11-.05c.08-.79.13-1.56.24-2.32a8.1,8.1,0,0,1,1.06-3.17.68.68,0,0,1,.77-.39,4.38,4.38,0,0,0,1.2,0A2.69,2.69,0,0,0,98,28.07,10.42,10.42,0,0,0,98.3,26c0-.29-.13-.4-.39-.49a4.9,4.9,0,0,0-4.49.69,7.86,7.86,0,0,0-2.51,8.77C91.22,35.79,91.22,35.79,92.19,35.66Z"/><path class="cls-2" d="M86.71,45.76A3.74,3.74,0,0,0,89.27,47c.64.13,1.29.25,1.92.4a3.39,3.39,0,0,1,.75.28c1,.51,1.15.91.64,1.93A5.89,5.89,0,0,1,87,53a6.72,6.72,0,0,1-4.52-1.36A5.84,5.84,0,0,1,80.55,49a.67.67,0,0,1,.1-.58,6,6,0,0,1,1.49-.94,18.54,18.54,0,0,1,2.35-.51A3.56,3.56,0,0,0,86.71,45.76Z"/></g><path class="cls-2" d="M79.09,48.79A13.42,13.42,0,0,0,82.29,47,10.52,10.52,0,0,1,84.7,45.7a6.24,6.24,0,0,1,5.14.43c.67.35,1.29.78,1.92,1.19a11.6,11.6,0,0,0,2.56,1.46v0l-.1.07L92,49.9a.25.25,0,0,1-.3,0c-.71-.48-1.42-1-2.14-1.43a5.6,5.6,0,0,0-2.19-.89,4,4,0,0,0-2.57.47c-.69.38-1.34.83-2,1.25l-1,.64a.27.27,0,0,1-.19,0,15.34,15.34,0,0,1-2.44-1.11Z"/><path class="cls-2" d="M124.26,37.52c0-.7,0-1.4.13-2.12s.21-1.41.37-2.11a9.11,9.11,0,0,1,.63-1.87,4.75,4.75,0,0,1,.91-1.36,2.29,2.29,0,0,1,1.27-.65A21.23,21.23,0,0,1,130,29.2c.92,0,1.88-.1,2.87-.18s2-.17,2.92-.28,1.79-.23,2.52-.36a11.65,11.65,0,0,1,.41,2,11.78,11.78,0,0,1,.11,1.5c0,.18,0,.35,0,.51-.5.1-1.07.19-1.69.29s-1.27.17-1.93.23-1.29.14-1.91.25-1.17.22-1.66.36a2.22,2.22,0,0,0-.53.79,9,9,0,0,0-.38,1.2,14.06,14.06,0,0,0-.26,1.43,12.63,12.63,0,0,0-.12,1.49v.32a8.91,8.91,0,0,0,0,1,5,5,0,0,0,.2,1.09,7.16,7.16,0,0,0,1,.43c.38.14.75.25,1.12.35a7.36,7.36,0,0,0,1.05.17l.52,0h.26c.08-.29.15-.54.2-.74a4.09,4.09,0,0,0,.09-.58,2.13,2.13,0,0,0,0-.56c0-.19-.08-.43-.15-.7a3.53,3.53,0,0,0-1.19-.3l-.62,0-.56,0a8.25,8.25,0,0,1-.07-1.08,2.62,2.62,0,0,1,0-.28,5.24,5.24,0,0,1,.25-1.34c.51-.08,1.09-.16,1.76-.24l2-.25c.69-.09,1.35-.17,2-.27l1.58-.24c.06.84.1,1.79.14,2.85s.07,2.14.1,3.22.05,2.15.06,3.18,0,2,0,2.75q-.44.12-1.11.24c-.44.08-.9.14-1.39.18a10.32,10.32,0,0,1-1.47,0,6.44,6.44,0,0,1-1.37-.16v-1c-.57,0-1.23-.1-2-.2a20.8,20.8,0,0,1-2.24-.41,16.4,16.4,0,0,1-2.25-.73,8.84,8.84,0,0,1-2-1.11,7.24,7.24,0,0,1-1.08-1,4.2,4.2,0,0,1-.58-1,4.85,4.85,0,0,1-.27-1.15c0-.42-.09-.92-.13-1.49s0-1,0-1.6Z"/><path class="cls-2" d="M139.91,32.09c0-.58.06-1.17.14-1.78a17.06,17.06,0,0,1,.3-1.72c.65-.24,1.35-.46,2.1-.68s1.54-.44,2.35-.65,1.61-.41,2.44-.59l.82-.19,1.61-.34c.79-.16,1.55-.3,2.27-.43l2-.31a2.8,2.8,0,0,1,.14.77c0,.33,0,.67.05,1,0,.11,0,.23,0,.35s0,.46,0,.7,0,.63,0,.86l-2.08.45-1,.21-.62.12c-.83.18-1.67.41-2.51.66a3,3,0,0,0-.27.7,6.36,6.36,0,0,0-.14.95c0,.12,0,.26,0,.39a5.46,5.46,0,0,0,0,.58,3,3,0,0,0,.2.75,2.67,2.67,0,0,0,.43-.08l.93-.21,1.2-.27,1.27-.27c.41-.09.79-.15,1.15-.22a4.08,4.08,0,0,1,.79-.09c.06.47.1,1,.12,1.55,0,.16,0,.31,0,.46a6,6,0,0,1-.08,1.06c-.47.14-1,.27-1.45.38l-1.49.32c-.51.11-1,.24-1.49.37a11.65,11.65,0,0,0-1.44.49,3,3,0,0,0-.19.78,5.49,5.49,0,0,0-.05.7,2.17,2.17,0,0,0,0,.26c0,.34,0,.66.06,1s.07.56.11.75a4.51,4.51,0,0,0,1.17-.1l.78-.15.83-.2L152,40a2.23,2.23,0,0,0,.39-.09,7.4,7.4,0,0,1,1-.14,12.47,12.47,0,0,1,.15,1.8v.16a7.56,7.56,0,0,1-.2,1.72l-3,.85c-1,.28-2,.54-3,.76l-.31.07c-.81.18-1.64.34-2.49.47a27.66,27.66,0,0,1-3,.28c-.08-1-.14-2.12-.17-3.29s0-2.34-.06-3.54c0-.31,0-.61,0-.91,0-.9,0-1.82,0-2.74,0-1.22,0-2.39.07-3.53l-.74.11Z"/><path class="cls-2" d="M155.12,35.33c0-1.1,0-2.19,0-3.26s0-2.11,0-3.09,0-1.85.06-2.59a2.06,2.06,0,0,1,.65-.32c.36-.13.81-.27,1.33-.41s1.09-.27,1.71-.39a17.27,17.27,0,0,1,1.78-.25c.57-.05,1.1-.08,1.57-.09h.26a3.7,3.7,0,0,1,.78.07c.4,1.29.85,2.57,1.34,3.84s1,2.54,1.46,3.82a1,1,0,0,0,.22.29.46.46,0,0,0,.31.13.38.38,0,0,0,.31-.12.86.86,0,0,0,.23-.45,3.22,3.22,0,0,0,0-.45q0-.39,0-1c0-.39,0-.81,0-1.28s0-.94,0-1.4,0-.9,0-1.3,0-.73,0-1a8.45,8.45,0,0,1,3.48.53,10.45,10.45,0,0,1,1.29.58c0,1.85,0,3.69,0,5.53,0,.92,0,1.84,0,2.76,0,2.77-.06,5.5-.12,8.2-.4-.12-.88-.25-1.43-.37s-1.15-.25-1.78-.35-1.31-.19-2-.27-1.38-.13-2.07-.19c-.67-1.18-1.28-2.38-1.84-3.62s-1.07-2.47-1.54-3.74a.55.55,0,0,0-.63-.35.65.65,0,0,0-.34.22,1,1,0,0,0-.19.51,36.63,36.63,0,0,0-.17,4c0,.86,0,1.78.06,2.75a15.6,15.6,0,0,1-2.29.56l-.42.06a12.73,12.73,0,0,1-2,.08c-.05-.47-.1-1.1-.14-1.9s-.07-1.68-.09-2.67S155.13,36.43,155.12,35.33Z"/><path class="cls-2" d="M124.54,70.84c0-.3,0-.61,0-.94s0-.64.08-1,.08-.63.13-.92a5.79,5.79,0,0,1,.17-.78,13.06,13.06,0,0,1,1.49.28c.67.14,1.42.3,2.25.44s1.72.27,2.66.38,1.86.16,2.74.19,1.72,0,2.49,0,1.39,0,1.88,0a6.2,6.2,0,0,1,1.1,1.16,8.77,8.77,0,0,1,1,1.69,11.11,11.11,0,0,1,.67,2.09,8.24,8.24,0,0,1,.18,1.59,6.45,6.45,0,0,1,0,.76c-.27.4-.65.91-1.13,1.55s-1,1.25-1.53,1.84c.1.16.24.4.41.7l.52,1c.19.35.39.71.58,1.09s.38.73.54,1,.32.61.44.86.21.43.26.55a4.51,4.51,0,0,1-1,.55,12,12,0,0,1-1.38.55c-.51.18-1,.34-1.56.47a8.82,8.82,0,0,1-1.42.26c-.29-.34-.54-.65-.77-1l-.68-.93c-.22-.32-.43-.64-.66-1s-.46-.67-.72-1c-.1-.14-.2-.3-.32-.46a5.38,5.38,0,0,0-.34-.43,1.46,1.46,0,0,0-.39-.29.55.55,0,0,0-.42,0,.5.5,0,0,0-.32.42,4.87,4.87,0,0,0-.05.65c0,.39,0,.79,0,1.17v.58c0,.58,0,1.17-.05,1.77a6.12,6.12,0,0,1-.92.1,7.29,7.29,0,0,1-1.29-.06,12.18,12.18,0,0,1-1.52-.29,10,10,0,0,1-1.63-.59c-.08-1.1-.15-2.23-.2-3.4s-.08-2.33-.1-3.48c0-.68,0-1.37,0-2V74.72c0-1.14,0-2.23,0-3.29l-.59-.24A4.83,4.83,0,0,1,124.54,70.84Zm6.91,3q0,.6,0,1.2c0,.4,0,.77,0,1.12a5.51,5.51,0,0,0,.11.87,6.21,6.21,0,0,0,.9,0,6.47,6.47,0,0,0,1.06-.11,4.2,4.2,0,0,0,1-.29,1.94,1.94,0,0,0,.78-.55c0-.11,0-.22,0-.35a4.12,4.12,0,0,0,0-.48c0-.31-.07-.59-.11-.87s-.09-.52-.14-.74l-.1-.44a1.53,1.53,0,0,0-.66-.34,7.84,7.84,0,0,0-1-.21l-.63-.07h-.41a1.3,1.3,0,0,0-.73.16C131.48,73.12,131.46,73.49,131.45,73.89Z"/><path class="cls-2" d="M142.09,79.83c0-1.12,0-2.26,0-3.42s.06-2.27.09-3.29.07-2,.09-2.76.05-1.43.07-1.85a10.88,10.88,0,0,1,1.36-.39l1.69-.38c.56-.12,1.08-.21,1.56-.3l.95-.15c0,.38,0,.8-.06,1.28s0,.94,0,1.42,0,1,0,1.42.08.92.14,1.35c0,.2.12.3.29.28h0c.15,0,.34-.22.55-.57s.46-.8.77-1.37.66-1.17,1-1.8.7-1.26,1-1.88.62-1.15.85-1.59a4.15,4.15,0,0,1,.48-.11,7.11,7.11,0,0,1,.84-.11q.69,0,1.41,0l1.44.1,1.38.15-.84,1.6c-.36.7-.76,1.47-1.18,2.31l-1.28,2.53c-.42.86-.79,1.61-1.09,2.27a14.7,14.7,0,0,0,1,1.9c.36.6.72,1.16,1.09,1.72s.75,1.1,1.12,1.66a16.32,16.32,0,0,1,1,1.79,9.13,9.13,0,0,1-1.28.54c-.52.19-1,.36-1.59.52s-1.06.32-1.56.45l-1.17.31c-.45-.53-.87-1.07-1.27-1.61s-.77-1-1.09-1.52l-.86-1.25a9.07,9.07,0,0,0-.6-.79.46.46,0,0,0-.3,0,.41.41,0,0,0-.2.13.56.56,0,0,0-.09.36c0,.31,0,.67,0,1.12s0,.91,0,1.39,0,1,0,1.45,0,.92-.07,1.32a3,3,0,0,1-.61.31c-.28.12-.61.23-1,.35s-.75.24-1.15.35-.79.2-1.17.28l-.36.07-.65.12a3.72,3.72,0,0,1-.67.05c-.07-.69-.12-1.53-.14-2.54,0-.8,0-1.64,0-2.51C142.08,80.28,142.08,80.05,142.09,79.83Z"/><path class="cls-2" d="M158.31,74.66c0-.29,0-.58,0-.86a22.7,22.7,0,0,1,.27-3.46,19.4,19.4,0,0,1,1.1-4.14,13.28,13.28,0,0,1,2.69-1,14.43,14.43,0,0,1,2.84-.42,12.65,12.65,0,0,1,2.87.2,12,12,0,0,1,1.62.4,15.88,15.88,0,0,1,1.66.61,8.21,8.21,0,0,1,.45,2.19c0,.56.07,1.1.06,1.59,0,.17,0,.33,0,.49a31.06,31.06,0,0,0-3.48-.78,14,14,0,0,0-3.47-.15,2.81,2.81,0,0,0-.42,1.13,10.52,10.52,0,0,0-.11,1.27c1.14.32,2.29.69,3.44,1.14a23.66,23.66,0,0,1,3.46,1.66,8.14,8.14,0,0,1,.44,1.94c0,.36.05.72.05,1.07a7.77,7.77,0,0,1,0,.84,7.37,7.37,0,0,1-.35,1.73,5.85,5.85,0,0,1-.66,1.4c-.83.16-1.68.3-2.57.41l-2.7.36-2.88.36c-1,.13-2,.31-3,.52a1.34,1.34,0,0,1-.33-.7,10.46,10.46,0,0,1-.24-1.26c-.05-.45-.1-.89-.14-1.31a4.06,4.06,0,0,1,0-.66,1.78,1.78,0,0,1,0-.25c.57-.08,1.17-.18,1.79-.3s1.24-.23,1.84-.32A7.83,7.83,0,0,0,164,78.1a3.47,3.47,0,0,0,.8-.34,3.36,3.36,0,0,0,.13-.71c0-.14,0-.28,0-.42s0-.28,0-.41a2.18,2.18,0,0,0-.69-.35,11.07,11.07,0,0,0-1.11-.29c-.42-.08-.87-.16-1.34-.22l-1.36-.18q-.66-.09-1.2-.21A2.81,2.81,0,0,1,158.31,74.66Z"/><path class="cls-2" d="M131.21,48.93l2.74-.19c.25,0,.5,0,.76,0a17.76,17.76,0,0,1,2.15.12l.6,3.59c.21,1.2.41,2.4.62,3.61,0,.12.11.19.26.21s.25,0,.29-.12c.18-.53.37-1.13.58-1.83s.4-1.42.59-2.14.39-1.44.58-2.14.34-1.31.5-1.84l2.62-.65c.2,0,.39-.09.59-.12a11.8,11.8,0,0,1,2-.23l1.13,3.34c.38,1.1.75,2.23,1.1,3.39a.44.44,0,0,0,.12.17.15.15,0,0,0,.18,0c.07,0,.15-.09.21-.22a2.18,2.18,0,0,0,.17-.62q.43-3.51.81-7.09a9.29,9.29,0,0,1,1.81-.57c.17,0,.33-.07.5-.09.81-.13,1.65-.23,2.51-.3,0,.5-.12,1.33-.26,2.5s-.28,2.36-.42,3.59-.3,2.41-.47,3.55-.33,2.21-.5,3.24-.31,2-.46,2.82-.28,1.58-.39,2.15l-1.94.54-1.8.48c-.59.16-1.19.31-1.78.44l-1.87.41c0-.12-.06-.33-.11-.64s-.12-.67-.18-1.09-.14-.88-.23-1.36-.16-.93-.23-1.36-.15-.83-.22-1.18l-.15-.77a.86.86,0,0,0-.22-.45.28.28,0,0,0-.29-.09.47.47,0,0,0-.29.23,1.79,1.79,0,0,0-.22.5L142.32,60c-.13.51-.27,1.09-.43,1.72s-.31,1.3-.48,2-.32,1.38-.47,2.05c-.69.16-1.32.29-1.9.38s-.92.14-1.36.18l-.33,0c-.55,0-1.09.05-1.65,0s-1.14,0-1.74,0c-.31-1.46-.58-2.91-.82-4.35s-.45-2.89-.65-4.33-.41-2.89-.63-4.36S131.43,50.38,131.21,48.93Z"/><path class="cls-2" d="M124.47,55.68c0-.48,0-1,0-1.43,0-1,0-1.88,0-2.8,0-1.39,0-2.64.07-3.78l1.29.29,1.36.35,1.38.32c.46.1.9.19,1.31.26q0,4-.14,8.1c-.09,2.7-.22,5.43-.38,8.17a1.31,1.31,0,0,1-.5,0,6,6,0,0,1-.8-.06,7.5,7.5,0,0,1-1-.17c-.34-.08-.66-.17-1-.27s-.6-.2-.85-.3-.45-.18-.58-.25c-.07-1.29-.13-2.66-.17-4.12S124.47,57.14,124.47,55.68Z"/><path class="cls-2" d="M155.4,56.37c0-1,0-1.91,0-2.86s0-1.86,0-2.76,0-1.67.08-2.35c.17-.21.38-.49.63-.86s.53-.73.81-1.1.56-.72.83-1a4,4,0,0,1,.66-.66l1.45-.25c.53-.08,1.12-.16,1.76-.21s1.29-.08,2-.08a15.91,15.91,0,0,1,2,.14,13.66,13.66,0,0,1,1.82.35,8,8,0,0,1,1.54.59,10.41,10.41,0,0,1,.76,1c.25.39.49.8.73,1.22s.46.86.68,1.31.42.87.6,1.27c0,.45.05,1,.08,1.63s.05,1.31.07,2,0,1.38,0,2.09,0,1.38,0,2,0,1.21,0,1.71,0,.88-.07,1.15a15.56,15.56,0,0,0-1.15,1.4,11.38,11.38,0,0,1-1.2,1.4c-.43,0-1-.1-1.54-.19s-1.24-.16-1.91-.22-1.42-.13-2.2-.18l-2.26-.09h-2.1c-.67,0-1.29,0-1.84,0a6.36,6.36,0,0,1-.59-.76c-.21-.32-.43-.67-.64-1s-.41-.74-.58-1.1a7.25,7.25,0,0,1-.41-1C155.41,58.2,155.4,57.33,155.4,56.37Zm6.08-.73c0,.6,0,1.15,0,1.64s0,.86,0,1.09a3.09,3.09,0,0,0,1.05.31l.56,0h.67a5.3,5.3,0,0,0,1.16-.21,2.66,2.66,0,0,0,.89-.46c0-.63,0-1.29,0-2s0-1.44,0-2.21,0-1.57,0-2.39-.09-1.62-.18-2.44l-1.08-.09a8.26,8.26,0,0,0-1,0,5,5,0,0,0-.94.13,4,4,0,0,0-.94.37,3.19,3.19,0,0,0-.17.89c0,.44-.07,1-.08,1.53s0,1.24,0,1.91v1.91Z"/><path class="cls-2" d="M114.51,5.33A4.94,4.94,0,0,1,116.9,6a4.44,4.44,0,0,1,1.82,1.8,4.9,4.9,0,0,1,0,4.86,4.52,4.52,0,0,1-1.8,1.8,4.9,4.9,0,0,1-4.84,0,4.52,4.52,0,0,1-1.8-1.8,4.84,4.84,0,0,1,0-4.86A4.44,4.44,0,0,1,112.12,6,5,5,0,0,1,114.51,5.33Zm0,.81a4.17,4.17,0,0,0-2,.52A3.78,3.78,0,0,0,111,8.17a4.05,4.05,0,0,0-.55,2,4.11,4.11,0,0,0,.54,2,3.86,3.86,0,0,0,1.5,1.5,4,4,0,0,0,4,0,3.8,3.8,0,0,0,1.5-1.5,4.11,4.11,0,0,0,.54-2,4.05,4.05,0,0,0-.55-2,3.75,3.75,0,0,0-1.52-1.51A4.14,4.14,0,0,0,114.51,6.14Zm-2.13,6.75V7.65h1.8a4.23,4.23,0,0,1,1.33.15,1.29,1.29,0,0,1,.66.51,1.38,1.38,0,0,1-.17,1.76,1.55,1.55,0,0,1-1.08.48,1.45,1.45,0,0,1,.44.28,5.84,5.84,0,0,1,.78,1l.63,1h-1l-.46-.82a4.34,4.34,0,0,0-.88-1.22,1.12,1.12,0,0,0-.68-.18h-.5v2.22Zm.84-3h1a1.62,1.62,0,0,0,1-.22.7.7,0,0,0,.27-.58.74.74,0,0,0-.13-.41.84.84,0,0,0-.36-.28,2.68,2.68,0,0,0-.85-.09h-1Z"/><polygon class="cls-2" points="112.75 35.72 116.03 35.66 116.03 39.47 112.75 39.47 112.75 35.72"/><path class="cls-3" d="M112.91,21.29c21.26,8.55,42.52-8.54,63.78,0V92c-11.95-4.8-23.9-1.5-35.85.79-8.17,1.73-16.34,3-24.51.89"/><path class="cls-2" d="M87.48,104.51a1.07,1.07,0,0,1-.47.11.79.79,0,0,1-.42-.12,1.44,1.44,0,0,1-.39-.39,4.13,4.13,0,0,1-.38-.68l-.15-.35-1.33.59-.18-.4,3.27-1.46.37.82a3.62,3.62,0,0,1,.13.35,1.61,1.61,0,0,1,.1.36,2.07,2.07,0,0,1,0,.35A.71.71,0,0,1,88,104a.84.84,0,0,1-.18.28A1,1,0,0,1,87.48,104.51Zm-1.38-1.25a3.76,3.76,0,0,0,.28.51.93.93,0,0,0,.27.31.5.5,0,0,0,.28.1.59.59,0,0,0,.31-.06.88.88,0,0,0,.36-.26.59.59,0,0,0,.12-.31,1.36,1.36,0,0,0-.06-.38,3.37,3.37,0,0,0-.17-.42l-.18-.41-1.35.6Z"/><path class="cls-2" d="M88.47,107.67a1.29,1.29,0,0,1,.15.41,1,1,0,0,1,0,.34.76.76,0,0,1-.15.28.78.78,0,0,1-.27.23l-.76.48-.23-.37.79-.5a1.26,1.26,0,0,0,.24-.19.71.71,0,0,0,.11-.21.54.54,0,0,0,0-.22,1.27,1.27,0,0,0-.07-.24l-.13-.25-.17-.28-.22-.34-1.41.88-.23-.37,3-1.91.56.9a3.43,3.43,0,0,1,.28.53,1.42,1.42,0,0,1,.1.46.74.74,0,0,1-.08.39.91.91,0,0,1-.29.3,1.11,1.11,0,0,1-.37.15.77.77,0,0,1-.34,0,.9.9,0,0,1-.3-.17A1.38,1.38,0,0,1,88.47,107.67Zm-.1-.44a1.24,1.24,0,0,0,.28.34.85.85,0,0,0,.28.15.62.62,0,0,0,.27,0,1.12,1.12,0,0,0,.25-.11.66.66,0,0,0,.19-.18.5.5,0,0,0,.08-.2.55.55,0,0,0,0-.22c0-.07,0-.15-.08-.23a1.64,1.64,0,0,0-.12-.22,2.39,2.39,0,0,0-.13-.21l-.25-.4-1.11.7Z"/><path class="cls-2" d="M88.72,111.15l2.75-2.29,1.41,1.69-.25.2L91.5,109.4l-.94.79,1,1.18-.2.17-1-1.18-1.1.92,1.15,1.37-.25.21Z"/><path class="cls-2" d="M94.79,114.84a3.51,3.51,0,0,1-.34.33,1.83,1.83,0,0,1-.36.26,1.34,1.34,0,0,1-.38.14,1.07,1.07,0,0,1-.4,0,1.48,1.48,0,0,1-.42-.14,1.88,1.88,0,0,1-.44-.31l-.93-.85,2.41-2.65.9.83a2.1,2.1,0,0,1,.44.53,1.26,1.26,0,0,1,.14.57,1.4,1.4,0,0,1-.15.6A2.8,2.8,0,0,1,94.79,114.84Zm-.35-.29a2,2,0,0,0,.56-1,.83.83,0,0,0-.31-.78l-.66-.61-2,2.17.63.57a.93.93,0,0,0,.83.26A1.92,1.92,0,0,0,94.44,114.55Z"/><path class="cls-2" d="M95.65,117.41l1.76-2.5-.38-.27.15-.21,1.1.77-.15.22-.38-.27L96,117.64l.39.27-.15.22-1.1-.78.15-.21Z"/><path class="cls-2" d="M99.05,117.84a2.54,2.54,0,0,0-.25.58,1.57,1.57,0,0,0-.06.51,1.06,1.06,0,0,0,.15.42,1,1,0,0,0,.38.31,1.2,1.2,0,0,0,.31.13l.28.06a1.43,1.43,0,0,0,.29,0l0,.34a1.25,1.25,0,0,1-.33,0,1.56,1.56,0,0,1-.32-.07,1.78,1.78,0,0,1-.36-.14,1.58,1.58,0,0,1-.53-.44,1.14,1.14,0,0,1-.24-.54,1.4,1.4,0,0,1,0-.64,2.65,2.65,0,0,1,.29-.72,2.41,2.41,0,0,1,.23-.36,2.35,2.35,0,0,1,.3-.33,2.42,2.42,0,0,1,.36-.27,1.56,1.56,0,0,1,.41-.15,1.41,1.41,0,0,1,.46,0,1.32,1.32,0,0,1,.5.18,1.84,1.84,0,0,1,.31.2l.22.19a1.8,1.8,0,0,1,.19.21l-.25.24a1.29,1.29,0,0,0-.16-.18l-.2-.17a1.32,1.32,0,0,0-.26-.18,1.08,1.08,0,0,0-.5-.14,1,1,0,0,0-.45.13,1.43,1.43,0,0,0-.41.34A2.7,2.7,0,0,0,99.05,117.84Z"/><path class="cls-2" d="M104.19,118.6l-1.17,3-.41-.16,1.17-3-1-.37.11-.3,2.35.89-.12.31Z"/><path class="cls-2" d="M106.27,122.4l.76-3-.45-.12.07-.25,1.3.34-.06.25-.46-.12-.76,3,.46.11-.06.25-1.31-.33.07-.25Z"/><path class="cls-2" d="M110.28,123l1.39-3,.4,0-1.57,3.41-.56-.07-.64-3.7.41.05Z"/><path class="cls-2" d="M113.6,123.73v-3.58h2.2v.32H114v1.23h1.53V122H114v1.43h1.79v.32Z"/><path class="cls-2" d="M121.15,119.39l1.89,3.25-.42.09-.46-.79-1.52.33-.08.91-.45.1.36-3.74Zm-.49,2.64,1.38-.3-1.16-2Z"/><path class="cls-2" d="M125.05,118.54l1.14,3-.42.15-1.13-3-1,.36-.11-.3,2.35-.88.12.31Z"/><path class="cls-2" d="M128.57,116.92l1.53,2.87-.39.21-1.53-2.87-.92.48-.15-.28,2.22-1.18.15.28Z"/><path class="cls-2" d="M132.81,117.83l-1.73-2.51-.39.26-.15-.21,1.11-.77.15.22-.38.26,1.73,2.52.39-.27.15.22-1.11.76-.15-.21Z"/><path class="cls-2" d="M134.1,113l2.14,2.45-.33.29-2.15-2.45L133,114l-.21-.24,1.89-1.65.21.24Z"/><path class="cls-2" d="M139.16,112.16a1.27,1.27,0,0,0,.26-.41.62.62,0,0,0,0-.38,1,1,0,0,0-.21-.4,3.16,3.16,0,0,0-.45-.44l-1.49-1.28.29-.34,1.48,1.28a3,3,0,0,1,.5.53,1.46,1.46,0,0,1,.25.54,1,1,0,0,1,0,.55,1.74,1.74,0,0,1-.33.56,1.72,1.72,0,0,1-.53.44,1.08,1.08,0,0,1-.55.12,1.38,1.38,0,0,1-.57-.17,2.87,2.87,0,0,1-.59-.41l-1.49-1.28.29-.33,1.49,1.28a2.94,2.94,0,0,0,.51.37,1.19,1.19,0,0,0,.43.14.74.74,0,0,0,.39-.08A1.25,1.25,0,0,0,139.16,112.16Z"/><path class="cls-2" d="M141.54,106.14l.39.27a2.27,2.27,0,0,1,.31.31,1.41,1.41,0,0,1,.21.35.86.86,0,0,1,.09.39,1.35,1.35,0,0,1,0,.44,2.13,2.13,0,0,1-.23.49l-.67,1.07-3-1.9.64-1a2.14,2.14,0,0,1,.45-.52,1.29,1.29,0,0,1,.53-.25,1.39,1.39,0,0,1,.63,0A2.61,2.61,0,0,1,141.54,106.14Zm-.23.39a2,2,0,0,0-1.06-.37.84.84,0,0,0-.71.45l-.48.76,2.48,1.55.45-.71a.92.92,0,0,0,.11-.87A1.94,1.94,0,0,0,141.31,106.53Z"/><path class="cls-2" d="M144,105.22l-3.27-1.46.9-2,.3.14-.72,1.6,1.13.51.62-1.41.24.11-.63,1.4,1.32.59.72-1.64.3.14Z"/></symbol></defs><title>Untitled-1</title><use width="177.19" height="123.73" transform="translate(0 0) scale(3.21)" xlink:href="#New_Symbol_3"/></svg>